<mxfile host="app.diagrams.net" modified="2023-09-18T20:22:52.371Z" agent="Mozilla/5.0 (Macintosh; Intel Mac OS X 10_15_7) AppleWebKit/537.36 (KHTML, like Gecko) Chrome/117.0.0.0 Safari/537.36" etag="tXF7RiFqnVuXZuCgjsh6" version="21.7.5" type="github">
  <diagram name="Page-1" id="OWKtrxKhU72zObdwzjaG">
    <mxGraphModel dx="954" dy="642" grid="1" gridSize="10" guides="1" tooltips="1" connect="1" arrows="1" fold="1" page="1" pageScale="1" pageWidth="850" pageHeight="1100" math="0" shadow="0">
      <root>
        <mxCell id="0" />
        <mxCell id="1" parent="0" />
        <mxCell id="K5SGmOCwkiQrflFBFsd8-1" value="Tobe" style="swimlane;html=1;childLayout=stackLayout;resizeParent=1;resizeParentMax=0;horizontal=1;startSize=20;horizontalStack=0;whiteSpace=wrap;" vertex="1" parent="1">
          <mxGeometry x="180" y="20" width="1500" height="620" as="geometry" />
        </mxCell>
        <mxCell id="K5SGmOCwkiQrflFBFsd8-2" value="client" style="swimlane;html=1;startSize=20;horizontal=0;" vertex="1" parent="K5SGmOCwkiQrflFBFsd8-1">
          <mxGeometry y="20" width="1500" height="200" as="geometry" />
        </mxCell>
        <mxCell id="K5SGmOCwkiQrflFBFsd8-13" style="edgeStyle=orthogonalEdgeStyle;rounded=0;orthogonalLoop=1;jettySize=auto;html=1;entryX=0;entryY=0.5;entryDx=0;entryDy=0;" edge="1" parent="K5SGmOCwkiQrflFBFsd8-2" source="K5SGmOCwkiQrflFBFsd8-11" target="K5SGmOCwkiQrflFBFsd8-12">
          <mxGeometry relative="1" as="geometry" />
        </mxCell>
        <mxCell id="K5SGmOCwkiQrflFBFsd8-11" value="start" style="points=[[0.145,0.145,0],[0.5,0,0],[0.855,0.145,0],[1,0.5,0],[0.855,0.855,0],[0.5,1,0],[0.145,0.855,0],[0,0.5,0]];shape=mxgraph.bpmn.event;html=1;verticalLabelPosition=bottom;labelBackgroundColor=#ffffff;verticalAlign=top;align=center;perimeter=ellipsePerimeter;outlineConnect=0;aspect=fixed;outline=standard;symbol=general;fillColor=#d5e8d4;strokeColor=#82b366;" vertex="1" parent="K5SGmOCwkiQrflFBFsd8-2">
          <mxGeometry x="40" y="75" width="50" height="50" as="geometry" />
        </mxCell>
        <mxCell id="K5SGmOCwkiQrflFBFsd8-12" value="Investigate for car rental company" style="rounded=1;whiteSpace=wrap;html=1;fillColor=#dae8fc;strokeColor=#6c8ebf;" vertex="1" parent="K5SGmOCwkiQrflFBFsd8-2">
          <mxGeometry x="140" y="70" width="120" height="60" as="geometry" />
        </mxCell>
        <mxCell id="K5SGmOCwkiQrflFBFsd8-3" value="Website(System)" style="swimlane;html=1;startSize=20;horizontal=0;" vertex="1" parent="K5SGmOCwkiQrflFBFsd8-1">
          <mxGeometry y="220" width="1500" height="200" as="geometry" />
        </mxCell>
        <mxCell id="K5SGmOCwkiQrflFBFsd8-4" value="Worker" style="swimlane;html=1;startSize=20;horizontal=0;" vertex="1" parent="K5SGmOCwkiQrflFBFsd8-1">
          <mxGeometry y="420" width="1500" height="200" as="geometry" />
        </mxCell>
        <mxCell id="K5SGmOCwkiQrflFBFsd8-10" value="Boss" style="swimlane;startSize=20;horizontal=0;html=1;whiteSpace=wrap;" vertex="1" parent="K5SGmOCwkiQrflFBFsd8-4">
          <mxGeometry y="200" width="1500" height="200" as="geometry" />
        </mxCell>
      </root>
    </mxGraphModel>
  </diagram>
</mxfile>
